<svg width="1000" height="1000" viewBox="0 0 1000 1000" fill="none" xmlns="http://www.w3.org/2000/svg">
<path d="M500 0C364.077 0 347.137 0.656332 293.943 2.90661C240.53 5.53194 204.401 13.8142 172.522 26.1908C139.642 39.0674 111.639 56.1633 83.9792 83.9792C56.132 111.639 38.8799 139.642 26.1908 172.522C13.8142 204.401 5.53194 240.53 2.90661 293.943C0.500063 347.168 0 364.077 0 500C0 635.923 0.656332 652.863 2.90661 706.057C5.53194 759.314 13.8142 795.599 26.1908 827.478C39.0674 860.358 56.1633 888.361 83.9792 916.021C111.639 943.868 139.642 961.12 172.522 973.809C204.401 986.03 240.686 994.468 293.943 997.093C347.168 999.5 364.077 1000 500 1000C635.923 1000 652.863 999.344 706.057 997.093C759.314 994.468 795.599 985.998 827.478 973.809C860.357 960.933 888.361 943.837 916.021 916.021C943.868 888.361 961.12 860.514 973.809 827.478C986.029 795.599 994.468 759.314 997.093 706.057C999.5 652.832 1000 635.923 1000 500C1000 364.077 999.344 347.137 997.093 293.943C994.468 240.686 985.998 204.213 973.809 172.522C960.933 139.642 943.837 111.639 916.021 83.9792C888.361 56.132 860.514 38.8799 827.478 26.1908C795.599 13.8142 759.314 5.53194 706.057 2.90661C652.832 0.500063 635.923 0 500 0ZM500 90.0113C633.485 90.0113 649.425 90.6676 702.181 92.9179C750.844 95.1994 777.347 103.325 794.943 110.201C818.415 119.296 834.823 130.048 852.575 147.612C869.984 165.021 880.735 181.616 889.83 205.088C896.706 222.684 904.832 249.187 907.113 297.85C909.364 350.606 910.02 366.577 910.02 500.031C910.02 633.485 909.364 649.456 906.926 702.213C904.3 750.875 896.174 777.378 889.33 794.974C879.86 818.446 869.296 834.854 851.856 852.607C834.26 870.015 817.508 880.766 794.224 889.861C776.847 896.737 749.969 904.863 701.119 907.145C648.081 909.395 632.454 910.051 498.625 910.051C364.796 910.051 349.2 909.395 296.099 906.957C247.437 904.332 220.59 896.206 202.994 889.361C179.241 879.891 162.958 869.327 145.518 851.888C127.922 834.292 116.733 817.54 108.107 794.256C101.106 776.878 93.1054 750 90.5113 701.15C88.7298 648.737 87.886 632.485 87.886 499.281C87.886 366.14 88.7298 349.856 90.5113 296.787C93.1054 247.937 101.106 221.121 108.107 203.682C116.733 179.897 127.953 163.645 145.518 146.049C162.927 128.641 179.241 117.39 202.994 108.576C220.59 101.731 246.781 93.6055 295.631 91.1676C348.669 89.2612 364.296 88.5736 497.937 88.5736L500 90.0113ZM500 243.374C358.076 243.374 243.312 358.295 243.312 500.062C243.312 641.986 358.232 756.751 500 756.751C641.924 756.751 756.688 641.83 756.688 500.062C756.688 358.139 641.768 243.374 500 243.374ZM500 666.74C407.863 666.74 333.323 592.199 333.323 500.062C333.323 407.926 407.863 333.385 500 333.385C592.136 333.385 666.677 407.926 666.677 500.062C666.677 592.199 592.136 666.74 500 666.74ZM827.041 233.123C827.041 266.346 800.006 293.162 766.94 293.162C733.717 293.162 706.901 266.315 706.901 233.123C706.901 200.088 733.904 173.209 766.94 173.209C799.975 173.209 827.041 200.088 827.041 233.123Z" fill="white"/>
</svg>
