<svg width="869" height="1000" viewBox="0 0 869 1000" fill="none" xmlns="http://www.w3.org/2000/svg">
<path d="M456.376 0.843795C510.91 0 565.132 0.500027 619.291 0C622.573 63.7846 645.511 128.757 692.201 173.853C738.797 220.074 804.707 241.232 868.836 248.388V416.178C808.739 414.21 748.36 401.709 693.826 375.833C670.075 365.082 647.949 351.237 626.292 337.08C626.01 458.837 626.792 580.437 625.51 701.694C622.26 759.947 603.04 817.919 569.163 865.921C514.661 945.832 420.062 997.928 322.9 999.553C263.303 1002.96 203.769 986.709 152.985 956.77C68.8243 907.142 9.60236 816.294 0.976899 718.788C-0.0231539 697.943 -0.366923 677.13 0.476872 656.785C7.97727 577.5 47.1981 501.652 108.076 450.055C177.08 389.958 273.741 361.332 364.246 378.27C365.09 439.992 362.621 501.652 362.621 563.374C321.275 549.998 272.96 553.748 236.833 578.843C210.457 595.938 190.424 622.127 179.986 651.754C171.361 672.88 173.83 696.35 174.33 718.788C184.237 787.167 249.99 844.639 320.181 838.42C366.715 837.92 411.311 810.918 435.563 771.385C443.407 757.54 452.188 743.383 452.657 727.101C456.751 652.566 455.126 578.343 455.626 503.808C455.97 335.83 455.126 168.321 456.407 0.875047L456.376 0.843795Z" fill="white"/>
</svg>
