<svg width="750" height="550" viewBox="0 0 750 550" fill="none" xmlns="http://www.w3.org/2000/svg">
<rect x="498.911" y="200" width="100.116" height="100" fill="#ED1C24"/>
<rect x="299.947" width="100.116" height="100" fill="#ED1C24"/>
<rect x="349.938" width="100.116" height="100" fill="#ED1C24"/>
<rect x="349.938" y="50" width="100.116" height="100" fill="#ED1C24"/>
<rect x="349.938" y="100" width="100.116" height="100" fill="#ED1C24"/>
<rect x="349.938" y="350" width="100.116" height="100" fill="#ED1C24"/>
<rect x="649.884" y="350" width="100.116" height="100" fill="#ED1C24"/>
<rect x="599.893" y="400" width="100.116" height="100" fill="#ED1C24"/>
<rect x="650.018" y="300" width="100.116" height="100" transform="rotate(-180 650.018 300)" fill="#ED1C24"/>
<path d="M549.902 0V100H650.018V0H549.902Z" fill="#ED1C24"/>
<path d="M649.751 150V250H749.866V150H649.751Z" fill="#ED1C24"/>
<path d="M649.884 0V100H750V0H649.884Z" fill="#ED1C24"/>
<path d="M0 450L0 550H199.23V450H0Z" fill="#ED1C24"/>
<path d="M149.172 250V350H249.288V250H149.172Z" fill="#ED1C24"/>
<path d="M349.938 150V250H450.053V150H349.938Z" fill="#ED1C24"/>
<path d="M199.964 100V200H300.08V100H199.964Z" fill="#ED1C24"/>
<path d="M498.911 0V100H599.027V0H498.911Z" fill="#ED1C24"/>
<path d="M649.751 100V200H749.866V100H649.751Z" fill="#ED1C24"/>
<path d="M750 400V300H649.884V400H750Z" fill="#ED1C24"/>
<path d="M300.347 550V450H200.231V550H300.347Z" fill="#ED1C24"/>
<path d="M450.053 400V300H349.938V400H450.053Z" fill="#ED1C24"/>
<path d="M550.036 550V450H449.92V550H550.036Z" fill="#ED1C24"/>
<path d="M450.053 550V450H349.938V550H450.053Z" fill="#ED1C24"/>
<path d="M300.08 350V250L199.964 250V350H300.08Z" fill="#ED1C24"/>
<path d="M100.116 550L100.116 450H4.57764e-05L4.57764e-05 550H100.116Z" fill="#ED1C24"/>
<path d="M249.288 550L249.288 450H149.172V550H249.288Z" fill="#ED1C24"/>
<path d="M200.098 350L200.098 250L99.9822 250L99.9822 350H200.098Z" fill="#ED1C24"/>
<path d="M100.116 400L100.116 300H4.57764e-05L4.57764e-05 400H100.116Z" fill="#ED1C24"/>
<path d="M150.107 150L150.107 50L49.9913 50L49.9913 150H150.107Z" fill="#ED1C24"/>
<path d="M100.116 200L100.116 100L4.57764e-05 100L4.57764e-05 200H100.116Z" fill="#ED1C24"/>
<path d="M200.231 100L200.231 0L100.116 0L100.116 100L200.231 100Z" fill="#ED1C24"/>
<path d="M100.116 250L100.116 150L4.57764e-05 150L4.57764e-05 250H100.116Z" fill="#ED1C24"/>
<path d="M199.964 50L199.964 150L300.08 150V50L199.964 50Z" fill="#ED1C24"/>
<path d="M100.116 450L100.116 350H4.57764e-05L4.57764e-05 450H100.116Z" fill="#ED1C24"/>
<path d="M650.018 550V450H549.902V550H650.018Z" fill="#ED1C24"/>
</svg>
